<svg width="14" height="14" viewBox="0 0 14 14" fill="none" xmlns="http://www.w3.org/2000/svg">
<path d="M9.98032 1.12143L9.81172 0.650715L9.98032 1.12143ZM2.32578 3.86308L2.49438 4.3338L2.32578 3.86308ZM2.05142 7.50659L1.81423 7.94676L1.81423 7.94676L2.05142 7.50659ZM3.89803 8.50167L4.13522 8.06151L4.13522 8.06151L3.89803 8.50167ZM4.73488 9.36142L5.18129 9.1362H5.18129L4.73488 9.36142ZM5.87912 11.6293L5.43271 11.8546L5.87912 11.6293ZM9.52986 11.4504L9.06358 11.2699L9.52986 11.4504ZM12.5199 3.72629L12.0536 3.54579L12.5199 3.72629ZM9.81172 0.650715L2.15719 3.39236L2.49438 4.3338L10.1489 1.59215L9.81172 0.650715ZM1.81423 7.94676L3.66084 8.94183L4.13522 8.06151L2.28861 7.06643L1.81423 7.94676ZM4.28848 9.58665L5.43271 11.8546L6.32552 11.4041L5.18129 9.1362L4.28848 9.58665ZM9.99614 11.6309L12.9861 3.90679L12.0536 3.54579L9.06358 11.2699L9.99614 11.6309ZM5.43271 11.8546C6.40841 13.7884 9.21421 13.6509 9.99614 11.6309L9.06358 11.2699C8.59441 12.4819 6.91094 12.5644 6.32552 11.4041L5.43271 11.8546ZM3.66084 8.94183C3.93111 9.08747 4.15019 9.31254 4.28848 9.58665L5.18129 9.1362C4.9508 8.67936 4.58567 8.30425 4.13522 8.06151L3.66084 8.94183ZM2.15719 3.39236C0.119756 4.12212 -0.0909414 6.92012 1.81423 7.94676L2.28861 7.06643C1.14551 6.45045 1.27192 4.77165 2.49438 4.3338L2.15719 3.39236ZM10.1489 1.59215C11.3585 1.15892 12.5174 2.34762 12.0536 3.54579L12.9861 3.90679C13.7591 1.90983 11.8277 -0.0713394 9.81172 0.650715L10.1489 1.59215ZM4.45282 9.99969L12.4528 1.99969L11.7457 1.29258L3.74571 9.29258L4.45282 9.99969Z" fill="white"/>
</svg>
