<svg width="73" height="73" viewBox="0 0 73 73" fill="none" xmlns="http://www.w3.org/2000/svg">
<circle opacity="0.7" cx="36.5" cy="36.5" r="36.5" fill="#C4BBDF"/>
<circle cx="36" cy="36" r="30" fill="#C4BBDF"/>
<path fill-rule="evenodd" clip-rule="evenodd" d="M32 44.8571C40.8366 44.8571 48 39.7404 48 33.4286C48 27.1167 40.8366 22 32 22C23.3643 22 16.3266 26.8867 16.011 33H16V44.1459C16 46.376 18.3469 47.8265 20.3416 46.8292L25.9666 44.0167C27.8285 44.5586 29.8654 44.8571 32 44.8571ZM25 36C26.1046 36 27 35.1046 27 34C27 32.8954 26.1046 32 25 32C23.8954 32 23 32.8954 23 34C23 35.1046 23.8954 36 25 36ZM32 36C33.1046 36 34 35.1046 34 34C34 32.8954 33.1046 32 32 32C30.8954 32 30 32.8954 30 34C30 35.1046 30.8954 36 32 36ZM41 34C41 35.1046 40.1046 36 39 36C37.8954 36 37 35.1046 37 34C37 32.8954 37.8954 32 39 32C40.1046 32 41 32.8954 41 34Z" fill="white"/>
<path d="M51 35.4286C51 41.7404 43.8366 46.8571 35 46.8571C34.8192 46.8571 34.6391 46.855 34.4597 46.8507C36.5863 47.9341 39.1889 48.5714 42 48.5714C43.7344 48.5714 45.3894 48.3288 46.9022 47.8886L51.4724 50.1737C53.0931 50.9841 55 49.8055 55 47.9935V38.9375H54.9911C54.8506 36.2162 53.0707 33.7941 50.3361 32.1601C50.7681 33.1957 51 34.2928 51 35.4286Z" fill="white"/>
</svg>
