<svg width="42" height="31" viewBox="0 0 42 31" fill="none" xmlns="http://www.w3.org/2000/svg">
<path fill-rule="evenodd" clip-rule="evenodd" d="M17.066 24.5176C26.3864 24.5176 33.942 19.1207 33.942 12.4633C33.942 5.80588 26.3864 0.408997 17.066 0.408997C7.95753 0.408997 0.534447 5.56329 0.201651 12.0112H0.190002V23.7674C0.190002 26.1196 2.66544 27.6495 4.76935 26.5976L10.7023 23.6311C12.6661 24.2026 14.8146 24.5176 17.066 24.5176ZM9.68275 15.1755C10.8478 15.1755 11.7923 14.231 11.7923 13.066C11.7923 11.901 10.8478 10.9565 9.68275 10.9565C8.51771 10.9565 7.57325 11.901 7.57325 13.066C7.57325 14.231 8.51771 15.1755 9.68275 15.1755ZM17.066 15.1755C18.231 15.1755 19.1755 14.231 19.1755 13.066C19.1755 11.901 18.231 10.9565 17.066 10.9565C15.901 10.9565 14.9565 11.901 14.9565 13.066C14.9565 14.231 15.901 15.1755 17.066 15.1755ZM26.5587 13.066C26.5587 14.231 25.6143 15.1755 24.4492 15.1755C23.2842 15.1755 22.3397 14.231 22.3397 13.066C22.3397 11.901 23.2842 10.9565 24.4492 10.9565C25.6143 10.9565 26.5587 11.901 26.5587 13.066Z" fill="white"/>
<path d="M37.1063 14.5728C37.1063 21.2302 29.5506 26.6271 20.2303 26.6271C20.0396 26.6271 19.8496 26.6248 19.6604 26.6203C21.9034 27.763 24.6485 28.4352 27.6135 28.4352C29.4428 28.4352 31.1884 28.1793 32.7841 27.715L37.6045 30.1252C39.314 30.9799 41.3253 29.7369 41.3253 27.8257V18.2738H41.3158C41.1677 15.4036 39.2904 12.8488 36.406 11.1254C36.8616 12.2176 37.1063 13.3748 37.1063 14.5728Z" fill="white"/>
</svg>
